<?xml version="1.0" encoding="UTF-8" standalone="no"?>
<!DOCTYPE svg PUBLIC "-//W3C//DTD SVG 1.1//EN"
 "http://www.w3.org/Graphics/SVG/1.1/DTD/svg11.dtd">
<!-- Generated by graphviz version 2.43.0 (0)
 -->
<!-- Pages: 1 -->
<svg width="630pt" height="332pt"
 viewBox="0.00 0.00 630.00 332.00" xmlns="http://www.w3.org/2000/svg" xmlns:xlink="http://www.w3.org/1999/xlink">
<g id="graph0" class="graph" transform="scale(1 1) rotate(0) translate(4 328)">
<polygon fill="white" stroke="transparent" points="-4,4 -4,-328 626,-328 626,4 -4,4"/>
<!-- Proprietary -->
<g id="node1" class="node">
<title>Proprietary</title>
<path fill="#ff6b6b" stroke="#ff6b6b" d="M52,-180C52,-180 12,-180 12,-180 6,-180 0,-174 0,-168 0,-168 0,-156 0,-156 0,-150 6,-144 12,-144 12,-144 52,-144 52,-144 58,-144 64,-150 64,-156 64,-156 64,-168 64,-168 64,-174 58,-180 52,-180"/>
<text text-anchor="middle" x="32" y="-165" font-family="Arial" font-size="10.00">Proprietary</text>
<text text-anchor="middle" x="32" y="-154" font-family="Arial" font-size="10.00">(O: &#45;0.7)</text>
</g>
<!-- Unlicense -->
<g id="node2" class="node">
<title>Unlicense</title>
<path fill="#fd79a8" stroke="#fd79a8" d="M268,-324C268,-324 232,-324 232,-324 226,-324 220,-318 220,-312 220,-312 220,-300 220,-300 220,-294 226,-288 232,-288 232,-288 268,-288 268,-288 274,-288 280,-294 280,-300 280,-300 280,-312 280,-312 280,-318 274,-324 268,-324"/>
<text text-anchor="middle" x="250" y="-309" font-family="Arial" font-size="10.00">Unlicense</text>
<text text-anchor="middle" x="250" y="-298" font-family="Arial" font-size="10.00">(O: 12.0)</text>
</g>
<!-- Proprietary&#45;&gt;Unlicense -->
<g id="edge1" class="edge">
<title>Proprietary&#45;&gt;Unlicense</title>
<path fill="none" stroke="black" d="M58.3,-180.13C97.99,-205.98 173.17,-254.96 216.65,-283.28"/>
<polygon fill="black" stroke="black" points="215.38,-285.79 223.61,-287.81 218.43,-281.1 215.38,-285.79"/>
</g>
<!-- CC0 -->
<g id="node3" class="node">
<title>CC0</title>
<path fill="#fd79a8" stroke="#fd79a8" d="M157.5,-324C157.5,-324 126.5,-324 126.5,-324 120.5,-324 114.5,-318 114.5,-312 114.5,-312 114.5,-300 114.5,-300 114.5,-294 120.5,-288 126.5,-288 126.5,-288 157.5,-288 157.5,-288 163.5,-288 169.5,-294 169.5,-300 169.5,-300 169.5,-312 169.5,-312 169.5,-318 163.5,-324 157.5,-324"/>
<text text-anchor="middle" x="142" y="-309" font-family="Arial" font-size="10.00">CC0</text>
<text text-anchor="middle" x="142" y="-298" font-family="Arial" font-size="10.00">(O: 12.0)</text>
</g>
<!-- Proprietary&#45;&gt;CC0 -->
<g id="edge2" class="edge">
<title>Proprietary&#45;&gt;CC0</title>
<path fill="none" stroke="black" d="M45.27,-180.13C64.84,-205.4 101.52,-252.75 123.66,-281.32"/>
<polygon fill="black" stroke="black" points="121.57,-283.2 128.68,-287.81 126,-279.77 121.57,-283.2"/>
</g>
<!-- AGPL&#45;3.0 -->
<g id="node4" class="node">
<title>AGPL&#45;3.0</title>
<path fill="#a29bfe" stroke="#a29bfe" d="M397.5,-36C397.5,-36 362.5,-36 362.5,-36 356.5,-36 350.5,-30 350.5,-24 350.5,-24 350.5,-12 350.5,-12 350.5,-6 356.5,0 362.5,0 362.5,0 397.5,0 397.5,0 403.5,0 409.5,-6 409.5,-12 409.5,-12 409.5,-24 409.5,-24 409.5,-30 403.5,-36 397.5,-36"/>
<text text-anchor="middle" x="380" y="-21" font-family="Arial" font-size="10.00">AGPL&#45;3.0</text>
<text text-anchor="middle" x="380" y="-10" font-family="Arial" font-size="10.00">(O: 1.1)</text>
</g>
<!-- GPL&#45;3.0 -->
<g id="node5" class="node">
<title>GPL&#45;3.0</title>
<path fill="#74b9ff" stroke="#74b9ff" d="M500,-180C500,-180 470,-180 470,-180 464,-180 458,-174 458,-168 458,-168 458,-156 458,-156 458,-150 464,-144 470,-144 470,-144 500,-144 500,-144 506,-144 512,-150 512,-156 512,-156 512,-168 512,-168 512,-174 506,-180 500,-180"/>
<text text-anchor="middle" x="485" y="-165" font-family="Arial" font-size="10.00">GPL&#45;3.0</text>
<text text-anchor="middle" x="485" y="-154" font-family="Arial" font-size="10.00">(O: 3.1)</text>
</g>
<!-- AGPL&#45;3.0&#45;&gt;GPL&#45;3.0 -->
<g id="edge3" class="edge">
<title>AGPL&#45;3.0&#45;&gt;GPL&#45;3.0</title>
<path fill="none" stroke="black" d="M392.67,-36.13C411.35,-61.4 446.36,-108.75 467.49,-137.32"/>
<polygon fill="black" stroke="black" points="465.28,-139.04 472.29,-143.81 469.78,-135.71 465.28,-139.04"/>
</g>
<!-- GPL&#45;2.0 -->
<g id="node6" class="node">
<title>GPL&#45;2.0</title>
<path fill="#74b9ff" stroke="#74b9ff" d="M502,-36C502,-36 472,-36 472,-36 466,-36 460,-30 460,-24 460,-24 460,-12 460,-12 460,-6 466,0 472,0 472,0 502,0 502,0 508,0 514,-6 514,-12 514,-12 514,-24 514,-24 514,-30 508,-36 502,-36"/>
<text text-anchor="middle" x="487" y="-21" font-family="Arial" font-size="10.00">GPL&#45;2.0</text>
<text text-anchor="middle" x="487" y="-10" font-family="Arial" font-size="10.00">(O: 2.8)</text>
</g>
<!-- GPL&#45;2.0&#45;&gt;GPL&#45;3.0 -->
<g id="edge4" class="edge">
<title>GPL&#45;2.0&#45;&gt;GPL&#45;3.0</title>
<path fill="none" stroke="black" d="M486.76,-36.13C486.41,-60.86 485.76,-106.76 485.36,-135.49"/>
<polygon fill="black" stroke="black" points="482.56,-135.77 485.24,-143.81 488.16,-135.85 482.56,-135.77"/>
</g>
<!-- LGPL&#45;3.0 -->
<g id="node7" class="node">
<title>LGPL&#45;3.0</title>
<path fill="#ffeaa7" stroke="#ffeaa7" d="M610,-180C610,-180 576,-180 576,-180 570,-180 564,-174 564,-168 564,-168 564,-156 564,-156 564,-150 570,-144 576,-144 576,-144 610,-144 610,-144 616,-144 622,-150 622,-156 622,-156 622,-168 622,-168 622,-174 616,-180 610,-180"/>
<text text-anchor="middle" x="593" y="-165" font-family="Arial" font-size="10.00">LGPL&#45;3.0</text>
<text text-anchor="middle" x="593" y="-154" font-family="Arial" font-size="10.00">(O: 6.1)</text>
</g>
<!-- LGPL&#45;2.1 -->
<g id="node8" class="node">
<title>LGPL&#45;2.1</title>
<path fill="#ffeaa7" stroke="#ffeaa7" d="M610,-36C610,-36 576,-36 576,-36 570,-36 564,-30 564,-24 564,-24 564,-12 564,-12 564,-6 570,0 576,0 576,0 610,0 610,0 616,0 622,-6 622,-12 622,-12 622,-24 622,-24 622,-30 616,-36 610,-36"/>
<text text-anchor="middle" x="593" y="-21" font-family="Arial" font-size="10.00">LGPL&#45;2.1</text>
<text text-anchor="middle" x="593" y="-10" font-family="Arial" font-size="10.00">(O: 5.8)</text>
</g>
<!-- LGPL&#45;2.1&#45;&gt;LGPL&#45;3.0 -->
<g id="edge5" class="edge">
<title>LGPL&#45;2.1&#45;&gt;LGPL&#45;3.0</title>
<path fill="none" stroke="black" d="M593,-36.13C593,-60.86 593,-106.76 593,-135.49"/>
<polygon fill="black" stroke="black" points="590.2,-135.81 593,-143.81 595.8,-135.81 590.2,-135.81"/>
</g>
<!-- Apache&#45;2.0 -->
<g id="node9" class="node">
<title>Apache&#45;2.0</title>
<path fill="#ffecd2" stroke="#ffecd2" d="M384,-324C384,-324 342,-324 342,-324 336,-324 330,-318 330,-312 330,-312 330,-300 330,-300 330,-294 336,-288 342,-288 342,-288 384,-288 384,-288 390,-288 396,-294 396,-300 396,-300 396,-312 396,-312 396,-318 390,-324 384,-324"/>
<text text-anchor="middle" x="363" y="-309" font-family="Arial" font-size="10.00">Apache&#45;2.0</text>
<text text-anchor="middle" x="363" y="-298" font-family="Arial" font-size="10.00">(O: 11.1)</text>
</g>
<!-- MIT -->
<g id="node10" class="node">
<title>MIT</title>
<path fill="#4ecdc4" stroke="#4ecdc4" d="M157.5,-180C157.5,-180 126.5,-180 126.5,-180 120.5,-180 114.5,-174 114.5,-168 114.5,-168 114.5,-156 114.5,-156 114.5,-150 120.5,-144 126.5,-144 126.5,-144 157.5,-144 157.5,-144 163.5,-144 169.5,-150 169.5,-156 169.5,-156 169.5,-168 169.5,-168 169.5,-174 163.5,-180 157.5,-180"/>
<text text-anchor="middle" x="142" y="-165" font-family="Arial" font-size="10.00">MIT</text>
<text text-anchor="middle" x="142" y="-154" font-family="Arial" font-size="10.00">(O: 10.6)</text>
</g>
<!-- MIT&#45;&gt;Unlicense -->
<g id="edge6" class="edge">
<title>MIT&#45;&gt;Unlicense</title>
<path fill="none" stroke="black" d="M155.03,-180.13C174.24,-205.4 210.26,-252.75 231.99,-281.32"/>
<polygon fill="black" stroke="black" points="229.86,-283.14 236.93,-287.81 234.31,-279.75 229.86,-283.14"/>
</g>
<!-- MIT&#45;&gt;CC0 -->
<g id="edge7" class="edge">
<title>MIT&#45;&gt;CC0</title>
<path fill="none" stroke="black" d="M142,-180.13C142,-204.86 142,-250.76 142,-279.49"/>
<polygon fill="black" stroke="black" points="139.2,-279.81 142,-287.81 144.8,-279.81 139.2,-279.81"/>
</g>
<!-- MIT&#45;&gt;Apache&#45;2.0 -->
<g id="edge8" class="edge">
<title>MIT&#45;&gt;Apache&#45;2.0</title>
<path fill="none" stroke="black" d="M168.66,-180.13C208.98,-206.04 285.43,-255.16 329.47,-283.45"/>
<polygon fill="black" stroke="black" points="328.01,-285.84 336.25,-287.81 331.04,-281.13 328.01,-285.84"/>
</g>
<!-- BSD&#45;3&#45;Clause -->
<g id="node11" class="node">
<title>BSD&#45;3&#45;Clause</title>
<path fill="#a8edea" stroke="#a8edea" d="M288,-36C288,-36 232,-36 232,-36 226,-36 220,-30 220,-24 220,-24 220,-12 220,-12 220,-6 226,0 232,0 232,0 288,0 288,0 294,0 300,-6 300,-12 300,-12 300,-24 300,-24 300,-30 294,-36 288,-36"/>
<text text-anchor="middle" x="260" y="-21" font-family="Arial" font-size="10.00">BSD&#45;3&#45;Clause</text>
<text text-anchor="middle" x="260" y="-10" font-family="Arial" font-size="10.00">(O: 10.1)</text>
</g>
<!-- BSD&#45;3&#45;Clause&#45;&gt;MIT -->
<g id="edge9" class="edge">
<title>BSD&#45;3&#45;Clause&#45;&gt;MIT</title>
<path fill="none" stroke="black" d="M245.77,-36.13C224.77,-61.4 185.42,-108.75 161.68,-137.32"/>
<polygon fill="black" stroke="black" points="159.24,-135.87 156.28,-143.81 163.55,-139.45 159.24,-135.87"/>
</g>
<!-- BSD&#45;2&#45;Clause -->
<g id="node12" class="node">
<title>BSD&#45;2&#45;Clause</title>
<path fill="#a8edea" stroke="#a8edea" d="M288,-180C288,-180 232,-180 232,-180 226,-180 220,-174 220,-168 220,-168 220,-156 220,-156 220,-150 226,-144 232,-144 232,-144 288,-144 288,-144 294,-144 300,-150 300,-156 300,-156 300,-168 300,-168 300,-174 294,-180 288,-180"/>
<text text-anchor="middle" x="260" y="-165" font-family="Arial" font-size="10.00">BSD&#45;2&#45;Clause</text>
<text text-anchor="middle" x="260" y="-154" font-family="Arial" font-size="10.00">(O: 10.6)</text>
</g>
<!-- BSD&#45;3&#45;Clause&#45;&gt;BSD&#45;2&#45;Clause -->
<g id="edge10" class="edge">
<title>BSD&#45;3&#45;Clause&#45;&gt;BSD&#45;2&#45;Clause</title>
<path fill="none" stroke="black" d="M260,-36.13C260,-60.86 260,-106.76 260,-135.49"/>
<polygon fill="black" stroke="black" points="257.2,-135.81 260,-143.81 262.8,-135.81 257.2,-135.81"/>
</g>
<!-- ISC -->
<g id="node13" class="node">
<title>ISC</title>
<path fill="#a8edea" stroke="#a8edea" d="M393.5,-180C393.5,-180 362.5,-180 362.5,-180 356.5,-180 350.5,-174 350.5,-168 350.5,-168 350.5,-156 350.5,-156 350.5,-150 356.5,-144 362.5,-144 362.5,-144 393.5,-144 393.5,-144 399.5,-144 405.5,-150 405.5,-156 405.5,-156 405.5,-168 405.5,-168 405.5,-174 399.5,-180 393.5,-180"/>
<text text-anchor="middle" x="378" y="-165" font-family="Arial" font-size="10.00">ISC</text>
<text text-anchor="middle" x="378" y="-154" font-family="Arial" font-size="10.00">(O: 10.6)</text>
</g>
<!-- BSD&#45;3&#45;Clause&#45;&gt;ISC -->
<g id="edge11" class="edge">
<title>BSD&#45;3&#45;Clause&#45;&gt;ISC</title>
<path fill="none" stroke="black" d="M274.23,-36.13C295.23,-61.4 334.58,-108.75 358.32,-137.32"/>
<polygon fill="black" stroke="black" points="356.45,-139.45 363.72,-143.81 360.76,-135.87 356.45,-139.45"/>
</g>
<!-- BSD&#45;2&#45;Clause&#45;&gt;Unlicense -->
<g id="edge12" class="edge">
<title>BSD&#45;2&#45;Clause&#45;&gt;Unlicense</title>
<path fill="none" stroke="black" d="M258.79,-180.13C257.05,-204.86 253.82,-250.76 251.8,-279.49"/>
<polygon fill="black" stroke="black" points="248.98,-279.63 251.21,-287.81 254.57,-280.03 248.98,-279.63"/>
</g>
<!-- BSD&#45;2&#45;Clause&#45;&gt;CC0 -->
<g id="edge13" class="edge">
<title>BSD&#45;2&#45;Clause&#45;&gt;CC0</title>
<path fill="none" stroke="black" d="M245.77,-180.13C224.77,-205.4 185.42,-252.75 161.68,-281.32"/>
<polygon fill="black" stroke="black" points="159.24,-279.87 156.28,-287.81 163.55,-283.45 159.24,-279.87"/>
</g>
<!-- BSD&#45;2&#45;Clause&#45;&gt;Apache&#45;2.0 -->
<g id="edge14" class="edge">
<title>BSD&#45;2&#45;Clause&#45;&gt;Apache&#45;2.0</title>
<path fill="none" stroke="black" d="M272.42,-180.13C290.75,-205.4 325.1,-252.75 345.82,-281.32"/>
<polygon fill="black" stroke="black" points="343.56,-282.98 350.53,-287.81 348.1,-279.69 343.56,-282.98"/>
</g>
<!-- ISC&#45;&gt;Unlicense -->
<g id="edge15" class="edge">
<title>ISC&#45;&gt;Unlicense</title>
<path fill="none" stroke="black" d="M362.56,-180.13C339.69,-205.5 296.74,-253.15 271.02,-281.68"/>
<polygon fill="black" stroke="black" points="268.77,-279.99 265.49,-287.81 272.93,-283.75 268.77,-279.99"/>
</g>
<!-- ISC&#45;&gt;CC0 -->
<g id="edge16" class="edge">
<title>ISC&#45;&gt;CC0</title>
<path fill="none" stroke="black" d="M350.47,-179.57C307.33,-205.52 223.87,-255.74 176.69,-284.13"/>
<polygon fill="black" stroke="black" points="175.13,-281.8 169.72,-288.32 178.02,-286.6 175.13,-281.8"/>
</g>
<!-- ISC&#45;&gt;Apache&#45;2.0 -->
<g id="edge17" class="edge">
<title>ISC&#45;&gt;Apache&#45;2.0</title>
<path fill="none" stroke="black" d="M376.19,-180.13C373.58,-204.86 368.73,-250.76 365.69,-279.49"/>
<polygon fill="black" stroke="black" points="362.87,-279.56 364.82,-287.81 368.44,-280.14 362.87,-279.56"/>
</g>
</g>
</svg>
